<svg xmlns="http://www.w3.org/2000/svg" width="1.9in" height="1.9in" data-name="Layer 1" viewBox="0 0 138.4 138.4"><path fill="#fff" d="M55.9 63.9v21h17.4c.5 0 .5 0 .5.5v52.5c0 .5 0 .5-.5.5H7.7a7.6 7.6 0 0 1-7.6-6.2 10.4 10.4 0 0 1-.1-1.8V7.9a7.6 7.6 0 0 1 1.7-5.1A7.3 7.3 0 0 1 7.3 0h123a7.9 7.9 0 0 1 4.6 1.2 7.5 7.5 0 0 1 3.5 6.4v122.7a7.9 7.9 0 0 1-1.4 4.7 7.5 7.5 0 0 1-6.4 3.3H96.2c-.6 0-.6 0-.6-.6V85.3c0-.5 0-.6.5-.6h17.2c.2 0 .3-.1.3-.3l.9-6.8.8-6.4.8-6.4v-.9H96c-.5 0-.5 0-.5-.5V49.2a11.9 11.9 0 0 1 .6-3.6 6.8 6.8 0 0 1 5-4.6 18.6 18.6 0 0 1 5-.6h10.7V21.7l-2-.2-6.3-.4c-3-.1-6-.2-9-.2a27.7 27.7 0 0 0-14 3.7 22.8 22.8 0 0 0-9.9 12.3 27.7 27.7 0 0 0-1.6 7c-.2 1.8-.3 3.6-.3 5.3v14.1c0 .5 0 .5-.5.5H55.9z"/></svg>