<svg xmlns="http://www.w3.org/2000/svg" viewBox="0 0 138.4 138.24"><path fill="#0036ce" d="M55.871 63.804v20.963h17.471c.528 0 .529.001.529.524v52.505c0 .51-.001.512-.505.512-21.877 0-43.754-.011-65.631.01-3.862.004-6.975-2.732-7.593-6.174-.107-.595-.13-1.211-.13-1.817C.007 103.428.008 76.53.008 49.632.008 35.681.014 21.729 0 7.778c-.002-1.917.511-3.634 1.744-5.102C3.194.95 5.054.019 7.322-.062c.239-.009.478-.01.717-.01 40.765 0 81.531.002 122.296-.009 1.657 0 3.21.297 4.593 1.23 2.275 1.536 3.421 3.695 3.459 6.44.002.12.001.239.001.359 0 40.777-.002 81.555.006 122.332 0 1.72-.341 3.326-1.351 4.737-1.57 2.193-3.716 3.291-6.421 3.29-9.755-.002-19.51-.001-29.265-.001h-5.2c-.608 0-.608 0-.608-.593V85.316c0-.549.001-.55.543-.55h16.784c.131 0 .263-.004.394-.002.184.003.275-.068.3-.268.283-2.271.572-4.542.865-6.812.275-2.128.563-4.255.837-6.383.275-2.128.54-4.258.811-6.387.045-.351.093-.702.147-1.111H96.044c-.495 0-.496 0-.496-.481.006-4.734-.001-9.468.027-14.202a11.84 11.84 0 0 1 .586-3.589c.802-2.477 2.547-3.936 5.003-4.628 1.636-.461 3.316-.557 5-.565 3.419-.015 6.838-.004 10.257-.004h.492V21.58c-.658-.073-1.306-.167-1.957-.214-2.107-.153-4.214-.344-6.325-.418-2.985-.105-5.974-.201-8.959-.151-4.968.083-9.7 1.179-14.011 3.749-4.815 2.871-8.039 7.047-9.927 12.289-.82 2.276-1.374 4.619-1.58 7.029a68.685 68.685 0 0 0-.272 5.327c-.037 4.71-.012 9.42-.013 14.13 0 .482-.001.483-.491.483H55.871z"/></svg>