<svg xmlns="http://www.w3.org/2000/svg"><symbol id="facebook-hover" viewBox="0 0 138.4 138.24"><path fill="#0036ce" d="M55.871 63.804v20.963h17.471c.528 0 .529.001.529.524v52.505c0 .51-.001.512-.505.512-21.877 0-43.754-.011-65.631.01-3.862.004-6.975-2.732-7.593-6.174-.107-.595-.13-1.211-.13-1.817C.007 103.428.008 76.53.008 49.632.008 35.681.014 21.729 0 7.778c-.002-1.917.511-3.634 1.744-5.102C3.194.95 5.054.019 7.322-.062c.239-.009.478-.01.717-.01 40.765 0 81.531.002 122.296-.009 1.657 0 3.21.297 4.593 1.23 2.275 1.536 3.421 3.695 3.459 6.44.002.12.001.239.001.359 0 40.777-.002 81.555.006 122.332 0 1.72-.341 3.326-1.351 4.737-1.57 2.193-3.716 3.291-6.421 3.29-9.755-.002-19.51-.001-29.265-.001h-5.2c-.608 0-.608 0-.608-.593V85.316c0-.549.001-.55.543-.55h16.784c.131 0 .263-.004.394-.002.184.003.275-.068.3-.268.283-2.271.572-4.542.865-6.812.275-2.128.563-4.255.837-6.383.275-2.128.54-4.258.811-6.387.045-.351.093-.702.147-1.111H96.044c-.495 0-.496 0-.496-.481.006-4.734-.001-9.468.027-14.202a11.84 11.84 0 0 1 .586-3.589c.802-2.477 2.547-3.936 5.003-4.628 1.636-.461 3.316-.557 5-.565 3.419-.015 6.838-.004 10.257-.004h.492V21.58c-.658-.073-1.306-.167-1.957-.214-2.107-.153-4.214-.344-6.325-.418-2.985-.105-5.974-.201-8.959-.151-4.968.083-9.7 1.179-14.011 3.749-4.815 2.871-8.039 7.047-9.927 12.289-.82 2.276-1.374 4.619-1.58 7.029a68.685 68.685 0 0 0-.272 5.327c-.037 4.71-.012 9.42-.013 14.13 0 .482-.001.483-.491.483H55.871z"/></symbol><symbol id="facebook" viewBox="0 0 138.4 138.4"><path fill="#fff" d="M55.9 63.9v21h17.4c.5 0 .5 0 .5.5v52.5c0 .5 0 .5-.5.5H7.7a7.6 7.6 0 0 1-7.6-6.2 10.4 10.4 0 0 1-.1-1.8V7.9a7.6 7.6 0 0 1 1.7-5.1A7.3 7.3 0 0 1 7.3 0h123a7.9 7.9 0 0 1 4.6 1.2 7.5 7.5 0 0 1 3.5 6.4v122.7a7.9 7.9 0 0 1-1.4 4.7 7.5 7.5 0 0 1-6.4 3.3H96.2c-.6 0-.6 0-.6-.6V85.3c0-.5 0-.6.5-.6h17.2c.2 0 .3-.1.3-.3l.9-6.8.8-6.4.8-6.4v-.9H96c-.5 0-.5 0-.5-.5V49.2a11.9 11.9 0 0 1 .6-3.6 6.8 6.8 0 0 1 5-4.6 18.6 18.6 0 0 1 5-.6h10.7V21.7l-2-.2-6.3-.4c-3-.1-6-.2-9-.2a27.7 27.7 0 0 0-14 3.7 22.8 22.8 0 0 0-9.9 12.3 27.7 27.7 0 0 0-1.6 7c-.2 1.8-.3 3.6-.3 5.3v14.1c0 .5 0 .5-.5.5H55.9z"/></symbol><symbol id="icons-white-close-nav-icon-w" viewBox="0 0 144.8 144.5"><path fill="#fff" d="M93.3 72.3l51.2 51.2-21.1 21.1-51.1-51.3-51.2 51.2L0 123.4l51.2-51.1L0 21.1 21.1 0l51.2 51.2L123.4 0l21.1 21.1z"/></symbol><symbol id="icons-white-like-icon-w" viewBox="0 0 151.2 138.4"><path fill="#fff" d="M75.7 138.4c-9.6-8.9-18.9-17.4-28-26.2s-20-19.3-29.4-29.5S3.6 63 1 50.4C-4.7 23.2 16.3 3.4 33.2.9s28.7 3.9 38.7 16.2l1.8 2.4 1.8 2.6 3.3-4.4c6.4-8.3 14.5-14.3 25-16.4 16.4-3.4 31.8 3.8 41.2 18.9s7.2 29 .8 43.6c-5.1 11.4-13.4 20.6-22.2 29.1-15.7 15.2-31.7 30.2-47.9 45.5z"/></symbol><symbol id="icons-white-open-nav-icon-w" viewBox="0 0 144.5 138.4"><path fill="#fff" d="M144.5 0v29.8H0V0zm0 53.3v29.9H0V53.3zM0 108.5h144.4v29.9H0z"/></symbol><symbol id="insta-hover" viewBox="0 0 138.4 138.39"><path fill="#f800ff" d="M69.088 138.195c-9.145 0-18.29.015-27.435-.003-18.251-.035-33.361-10.56-39.22-27.809-1.421-4.184-2.072-8.812-2.126-13.247C.078 78.522.166 59.904.222 41.287.281 21.67 13.184 5.483 32.283 1.156 35.31.47 38.497.242 41.611.228 60.031.145 78.452.162 96.873.194c19.79.034 35.942 12.799 40.359 32.02.695 3.024.929 6.212.944 9.326.085 18.42.063 36.841.036 55.262-.03 19.817-12.709 35.905-31.975 40.39-3.083.718-6.338.918-9.519.96-9.208.122-18.419.043-27.63.043zm.124-12.546c9.145 0 18.29.04 27.434-.028 2.272-.017 4.594-.143 6.802-.632 13.344-2.957 22.172-13.993 22.211-27.773.053-18.681.033-37.363-.014-56.044-.005-2.075-.177-4.195-.627-6.215-2.972-13.341-13.999-22.171-27.779-22.21-18.681-.053-37.363-.033-56.044.014-2.075.005-4.195.177-6.215.627-13.341 2.972-22.171 13.999-22.21 27.778-.053 18.681-.033 37.363.014 56.044.005 2.075.177 4.195.627 6.215 2.957 13.271 13.94 22.111 27.583 22.209 9.405.069 18.812.014 28.218.015z"/><path fill="#00f" d="M69.158 31.559c20.66-.046 37.682 16.947 37.688 37.625.006 20.675-17.008 37.674-37.674 37.639-20.614-.034-37.506-16.898-37.59-37.527-.085-20.648 16.885-37.691 37.576-37.737zm.095 12.546c-13.85-.022-25.047 11.097-25.125 24.949-.078 13.923 11.121 25.2 25.047 25.223C83.026 94.3 94.223 83.18 94.3 69.328c.078-13.924-11.12-25.2-25.047-25.223z"/><path fill="#ff7f00" d="M111.938 32.062c.043 3.152-2.542 5.765-5.693 5.754-3.074-.011-5.612-2.522-5.654-5.597-.043-3.152 2.542-5.765 5.693-5.754 3.074.011 5.612 2.523 5.654 5.597z"/></symbol><symbol id="insta" viewBox="0 0 138.1 138"><path fill="#fff" d="M68.9 138H41.5c-18.3 0-33.4-10.6-39.2-27.8A43.5 43.5 0 0 1 .1 96.9C-.1 78.3 0 59.7.1 41.1A40.6 40.6 0 0 1 32.1 1a43.4 43.4 0 0 1 9.4-1h55.2c19.8 0 35.9 12.8 40.4 32a42.8 42.8 0 0 1 .9 9.3c.1 18.4.1 36.8 0 55.3s-12.7 35.9-32 40.4a44.9 44.9 0 0 1-9.5 1c-9.1.1-18.4 0-27.6 0zm.1-12.5h27.5a32.8 32.8 0 0 0 6.8-.6c13.3-3 22.2-14 22.2-27.8q.1-28 0-56a29.1 29.1 0 0 0-.6-6.2c-3-13.3-14-22.2-27.8-22.2H41a29.1 29.1 0 0 0-6.2.6c-13.3 3-22.2 14-22.2 27.8q-.1 28 0 56a29.1 29.1 0 0 0 .6 6.2 27.8 27.8 0 0 0 27.6 22.2z"/><path fill="#fff" d="M69 31.4a37.6 37.6 0 1 1-37.6 37.7A37.8 37.8 0 0 1 69 31.4zm.1 12.5a25.1 25.1 0 1 0 25 25.2 25 25 0 0 0-25-25.2zm42.7-12a5.7 5.7 0 1 1-5.7-5.6 5.7 5.7 0 0 1 5.7 5.6z"/></symbol><symbol id="like-hover" viewBox="0 0 151.16 138.24"><path fill="red" d="M75.709 138.088c-9.551-8.895-18.944-17.387-28.04-26.185-9.982-9.654-19.959-19.339-29.438-29.479C9.686 73.283 3.583 62.679.954 50.132c-5.7-27.2 15.305-47.057 32.219-49.497 16.063-2.318 28.682 3.904 38.691 16.198.64.786 1.213 1.625 1.806 2.448.53.736 1.046 1.482 1.823 2.587 1.169-1.566 2.202-2.978 3.264-4.369C85.192 9.072 93.337 3.12 103.832.964c16.375-3.364 31.831 3.83 41.157 18.851 8.933 14.389 7.249 29.045.787 43.621-5.059 11.412-13.381 20.55-22.196 29.112-15.711 15.258-31.721 30.208-47.871 45.54z"/></symbol><symbol id="like" viewBox="0 0 151.16 137.12"><path fill="#fff" d="M75.709 137.124c-9.551-8.895-18.944-17.387-28.04-26.185-9.982-9.654-19.96-19.339-29.439-29.479C9.686 72.32 3.583 61.715.954 49.168c-5.7-27.2 15.305-47.057 32.219-49.497 16.063-2.318 28.682 3.904 38.691 16.198.64.786 1.213 1.625 1.806 2.448.53.736 1.046 1.482 1.823 2.587 1.169-1.566 2.202-2.978 3.264-4.369C85.191 8.107 93.336 2.156 103.832 0c16.375-3.364 31.831 3.83 41.157 18.851 8.933 14.389 7.249 29.045.787 43.621-5.059 11.412-13.381 20.55-22.196 29.112-15.711 15.258-31.721 30.208-47.871 45.54z"/></symbol><symbol id="logo-final" viewBox="0 0 400 140.8"><path fill="#fff" d="M100.4 104.7c-4.7-16.3-3.9-23.3-3.8-24.4v-.2a21.4 21.4 0 0 0 .4-4.3 22.4 22.4 0 0 0-2-9.2c-.3-9-13.3-23.2-13.3-23.2 0-2-5.8-3.5-13-3.6h-.6c-7.2.1-13 1.7-13 3.6 0 0-13 14.2-13.3 23.2a22.4 22.4 0 0 0-2 9.2 21.4 21.4 0 0 0 .4 4.3v.2c.2 1.1.9 8.1-3.8 24.4l-1.4 5.1v1.1l.3 1.1v.8a12.2 12.2 0 0 0 2.8 4.1c.2.3 7 10.4 6.5 17.9 0 .3-.1.6-.1.9 0 2.5 2.3 4.5 5.1 4.5a17 17 0 0 0 13.9-2.5l.3-.2a6.7 6.7 0 0 0 1.4-1.4 5.8 5.8 0 0 0 1.2-3.4 6.2 6.2 0 0 0-3.5-5.4c-.5-.3-11.9-8.2-1.6-11a32.3 32.3 0 0 1 7-.9h.4a32.3 32.3 0 0 1 7 .9c10.4 2.8-1.1 10.6-1.6 11a6.2 6.2 0 0 0-3.5 5.4 5.8 5.8 0 0 0 1.2 3.4 6.7 6.7 0 0 0 1.4 1.4l.3.2a17 17 0 0 0 13.4 2.7c2.8 0 5.1-2 5.1-4.5 0-.3-.1-.6-.1-.9-.5-7.5 6.3-17.6 6.5-17.9a12.1 12.1 0 0 0 2.8-4.1v-.8l.3-1.1V110zM55 86.9a7.5 7.5 0 1 1 7.5-7.5 7.5 7.5 0 0 1-7.5 7.5zm26.7 0a7.5 7.5 0 1 1 7.5-7.5 7.5 7.5 0 0 1-7.5 7.5z"/><path fill="#fff" d="M102.8 74.5l11-20.2a40.6 40.6 0 0 0 .6-30.7 15.6 15.6 0 0 0-12.1-8.8A85.6 85.6 0 0 1 68.5 1.1c-11-7.8-.2 26.6 17.5 38.7 0 0 7.7 7.6 10.9 15.1s4.8 19.2 4.8 19.2.1 2.1 1.1.4zm-54-33.3l-23.6 8.2S9.3 55.5 1.1 71.6a13.1 13.1 0 0 0 2 13.8 67 67 0 0 1 14 30.4c2 12.3 20.7-19.4 17.1-39 0 0 .2-10.3 3.8-17.7s11.3-17 11.3-17 1.4-1.6-.5-.9zM135.9 21h16.9v41.3h26.5v13.5h-43.4zm47.7 27.4q0-13.4 7.5-20.9t20.8-7.5q13.7 0 21.1 7.4t7.4 20.6q0 9.6-3.2 15.8a23.1 23.1 0 0 1-9.4 9.6q-6.1 3.4-15.2 3.4t-15.4-3a23.1 23.1 0 0 1-9.9-9.4q-3.7-6.4-3.7-16zm16.9.1q0 8.3 3.1 11.9A10.5 10.5 0 0 0 212 64q5.5 0 8.5-3.6t3-12.8q0-7.7-3.1-11.3a10.7 10.7 0 0 0-8.5-3.6 10.3 10.3 0 0 0-8.2 3.6q-3.1 3.8-3.1 12.2zM238.8 21h18.8l11.1 18.5L279.8 21h18.7l-21.3 31.8v23h-17v-23zm91.7 45.8h-19.3l-2.7 9.1h-17.2L311.9 21h18.5L351 75.8h-17.8zM327 54.9l-6.1-19.7-6 19.7zM356.4 21h17v41.3h26.5v13.5h-43.5zM135.5 130.5V82.3h24.8a36.1 36.1 0 0 1 10.6 1.2 11.2 11.2 0 0 1 5.9 4.4 13.6 13.6 0 0 1-4.2 19.5 18 18 0 0 1-5.2 1.9 10.1 10.1 0 0 1 6.3 4.3 19 19 0 0 1 2.1 3l7.2 14h-16.9l-8-14.7a11.2 11.2 0 0 0-2.7-3.7 6.3 6.3 0 0 0-3.7-1.1h-1.3v19.6zm15-28.7h6.3a22.5 22.5 0 0 0 3.9-.7 3.9 3.9 0 0 0 2.4-1.5 4.9 4.9 0 0 0-.5-6.4q-1.5-1.3-5.6-1.3h-6.5zm73.4 14.5h-26.8a8.7 8.7 0 0 0 1.7 4.8 6.3 6.3 0 0 0 5.1 2.3 7.6 7.6 0 0 0 3.8-1 8.8 8.8 0 0 0 2.3-2.2l13.2 1.2a18.9 18.9 0 0 1-7.3 7.6q-4.3 2.3-12.3 2.3t-10.9-2a16 16 0 0 1-6.6-6.2 18.8 18.8 0 0 1-2.6-10q0-8.2 5.2-13.3t14.5-5.1q7.5 0 11.8 2.3a15.3 15.3 0 0 1 6.6 6.6q2.3 4.3 2.3 11.2zm-13.6-6.4q-.4-3.9-2.1-5.6a6.6 6.6 0 0 0-9.6.9 9.3 9.3 0 0 0-1.5 4.7zm17.4 10.9l13.3-1.2a6.6 6.6 0 0 0 2.3 3.4 6.8 6.8 0 0 0 3.9 1 6.7 6.7 0 0 0 4.2-1.2 2.6 2.6 0 0 0 1.2-2.1 2.4 2.4 0 0 0-1.5-2.2 27.6 27.6 0 0 0-5.8-1.4 59.9 59.9 0 0 1-9.7-2.3 10.2 10.2 0 0 1-4.6-3.5 9.1 9.1 0 0 1-1.9-5.6 9.2 9.2 0 0 1 2-6 11.9 11.9 0 0 1 5.5-3.7 29.4 29.4 0 0 1 9.4-1.2 32.7 32.7 0 0 1 9.2 1 12 12 0 0 1 5 3 15.5 15.5 0 0 1 3.3 5.4l-12.5 1.2a4.3 4.3 0 0 0-1.6-2.5 6.7 6.7 0 0 0-3.8-1.1 5.4 5.4 0 0 0-3.3.8 2.4 2.4 0 0 0-1 2 2.1 2.1 0 0 0 1.3 1.9 21.3 21.3 0 0 0 5.7 1.2 39.2 39.2 0 0 1 9.9 2.1 11 11 0 0 1 5 3.8 9.4 9.4 0 0 1 1.7 5.5 10.8 10.8 0 0 1-1.8 5.9 12.4 12.4 0 0 1-5.8 4.6q-3.9 1.7-10.7 1.7-9.6 0-13.6-2.7a12.3 12.3 0 0 1-5.3-7.8zm69.6-4l12.7 1.4a17.8 17.8 0 0 1-3.5 6.9 16.1 16.1 0 0 1-6.1 4.5 24.1 24.1 0 0 1-9.5 1.6 35 35 0 0 1-9.3-1 16.2 16.2 0 0 1-6.4-3.4 16.9 16.9 0 0 1-4.2-5.4 19.1 19.1 0 0 1-1.5-8.3 19.5 19.5 0 0 1 1.8-9 16.3 16.3 0 0 1 3.7-4.7 17 17 0 0 1 4.8-3.1 26.7 26.7 0 0 1 10-1.6q8.6 0 13 3.1a16.1 16.1 0 0 1 6.3 9l-12.6 1.7a5.8 5.8 0 0 0-2.2-3.4 7 7 0 0 0-4.2-1.1 6.8 6.8 0 0 0-5.4 2.4q-2.1 2.4-2.1 7.2t2 6.5a6.7 6.7 0 0 0 5.2 2.2 7.2 7.2 0 0 0 4.4-1.3 8 8 0 0 0 3.1-4.2zm55.7 13.7h-12.5v-5.7a18.4 18.4 0 0 1-5.6 5 15 15 0 0 1-7 1.5q-5.5 0-8.7-3.3t-3.1-10.2V95.6h13.5v19.2q0 3.3 1.2 4.7a4.3 4.3 0 0 0 3.4 1.4 4.9 4.9 0 0 0 3.9-1.8q1.5-1.8 1.5-6.6V95.6H353zm47-14.2h-26.9a8.7 8.7 0 0 0 1.7 4.8 6.4 6.4 0 0 0 5.1 2.3 7.6 7.6 0 0 0 3.8-1 8.8 8.8 0 0 0 2.3-2.2l13.2 1.2a18.9 18.9 0 0 1-7.3 7.6q-4.3 2.3-12.3 2.3t-10.9-2a16 16 0 0 1-6.6-6.2 18.8 18.8 0 0 1-2.6-10q0-8.2 5.2-13.3t14.5-5.1q7.5 0 11.8 2.3a15.3 15.3 0 0 1 6.6 6.6q2.3 4.3 2.3 11.2zm-13.6-6.4q-.4-3.9-2.1-5.6a6.6 6.6 0 0 0-9.6.9 9.3 9.3 0 0 0-1.5 4.7z"/></symbol><symbol id="snap-hover" viewBox="0 0 146.83 138.24"><path fill="#fff800" d="M113.578 56.11c.834-.064 1.565-.012 2.232-.194a33.126 33.126 0 0 0 3.877-1.293c3.797-1.562 7.249-.857 10.3 1.689 2.865 2.391 3.016 6.123.558 8.936-.955 1.094-2.124 1.915-3.376 2.627-1.821 1.036-3.784 1.718-5.763 2.378a43.515 43.515 0 0 0-4.083 1.594c-.67.302-1.282.774-1.846 1.255-.771.658-1.075 1.543-.872 2.551.115.571.229 1.159.464 1.686 3.479 7.81 8.518 14.369 15.612 19.238 3.726 2.557 7.84 4.203 12.299 4.98 2.208.385 3.67 1.964 3.839 4.187.086 1.13-.257 2.185-.853 3.153-.735 1.192-1.767 2.076-2.929 2.823-2.075 1.334-4.357 2.216-6.723 2.824-2.705.696-5.449 1.243-8.184 1.818-1.038.218-1.049.171-1.302 1.24-.345 1.456-.651 2.922-1.039 4.366-.738 2.746-2.542 4.106-5.372 3.934-1.487-.091-2.966-.384-4.438-.644-3.885-.686-7.772-.74-11.657-.061-1.651.288-3.179.961-4.596 1.84a101.465 101.465 0 0 0-4.565 3.007c-3.399 2.373-6.924 4.512-10.796 6.036-3.925 1.544-7.983 2.356-12.211 2.156-4.288-.203-8.32-1.398-12.18-3.233-2.92-1.388-5.647-3.095-8.292-4.947-1.28-.896-2.587-1.752-3.888-2.618-2.681-1.785-5.676-2.515-8.856-2.677-3.309-.169-6.56.196-9.796.852-1.078.218-2.191.366-3.288.366-2.359.001-4.023-1.26-4.701-3.527-.409-1.369-.686-2.778-1.024-4.169-.13-.537-.262-1.073-.413-1.69-1.109-.207-2.224-.406-3.335-.626-3.482-.689-6.93-1.502-10.192-2.949-1.646-.73-3.194-1.624-4.443-2.955-1.01-1.076-1.678-2.321-1.743-3.825-.098-2.247 1.335-4.245 3.539-4.622 9.09-1.554 16.027-6.525 21.694-13.533 2.55-3.153 4.688-6.569 6.316-10.291.247-.564.452-1.153.605-1.748.321-1.251.017-2.362-1.029-3.136-.778-.576-1.618-1.111-2.507-1.482-1.467-.613-2.991-1.092-4.5-1.603-2.012-.681-3.942-1.528-5.707-2.723-1.004-.68-1.907-1.474-2.623-2.461-1.751-2.416-1.606-5.395.341-7.644 2.043-2.359 6.619-4.189 10.333-2.324 1.635.821 3.382 1.361 5.236 1.43.477.018.957-.045 1.481-.073 0-.54.019-.99-.003-1.437-.192-3.999-.456-7.997-.57-11.998-.112-3.906.006-7.806.529-11.695.584-4.348 2.237-8.265 4.464-11.986C43.251 9.477 51.544 3.74 62.205 1.311A52.387 52.387 0 0 1 75.093 0c9.662.226 18.451 3.045 25.942 9.32 5.358 4.488 9.181 10.088 11.529 16.67.913 2.559 1.273 5.246 1.492 7.943.437 5.369.243 10.737-.118 16.102-.131 1.945-.231 3.893-.36 6.075z"/></symbol><symbol id="snap" viewBox="0 0 146.8 138.3"><path fill="#fff" d="M113.6 56.1a12.7 12.7 0 0 0 2.2-.2l3.9-1.3a9.5 9.5 0 0 1 10.3 1.7 6 6 0 0 1 .6 8.9 12.7 12.7 0 0 1-3.4 2.6 31.8 31.8 0 0 1-5.8 2.4l-4.1 1.6a8 8 0 0 0-1.8 1.3 2.5 2.5 0 0 0-.9 2.6 8.1 8.1 0 0 0 .5 1.7 44.8 44.8 0 0 0 15.6 19.2 30.9 30.9 0 0 0 12.3 5 4.4 4.4 0 0 1 3.8 4.2 5.2 5.2 0 0 1-.9 3.2 9.1 9.1 0 0 1-2.9 2.8 22.8 22.8 0 0 1-6.7 2.8l-8.2 1.8c-1 .2-1 .2-1.3 1.2s-.7 2.9-1 4.4a4.8 4.8 0 0 1-5.4 3.9 39.5 39.5 0 0 1-4.4-.6 33.5 33.5 0 0 0-11.7-.1 13 13 0 0 0-4.6 1.8l-4.6 3a52.6 52.6 0 0 1-10.8 6 29.3 29.3 0 0 1-12.2 2.2A31.7 31.7 0 0 1 60 135a57.8 57.8 0 0 1-8.3-4.9l-3.9-2.6a17.1 17.1 0 0 0-8.9-2.7 39.1 39.1 0 0 0-9.8.9 16.7 16.7 0 0 1-3.3.4 4.6 4.6 0 0 1-4.7-3.5c-.4-1.4-.7-2.8-1-4.2l-.4-1.7-3.3-.6A47.7 47.7 0 0 1 6.2 113a13.3 13.3 0 0 1-4.4-3 5.9 5.9 0 0 1-1.8-3.7 4.4 4.4 0 0 1 3.5-4.6c9.1-1.6 16-6.5 21.7-13.5a45.1 45.1 0 0 0 6.3-10.3 11.6 11.6 0 0 0 .6-1.7 2.8 2.8 0 0 0-1-3.1 12.2 12.2 0 0 0-2.5-1.5L24.1 70a23.5 23.5 0 0 1-5.7-2.7 10.3 10.3 0 0 1-2.6-2.5 6 6 0 0 1 .3-7.6c2-2.4 6.6-4.2 10.3-2.3a12.7 12.7 0 0 0 5.2 1.4h1.5v-1.4c-.2-4-.5-8-.6-12a72.1 72.1 0 0 1 .5-11.7 31.4 31.4 0 0 1 4.5-12c5.8-9.7 14-15.4 24.7-17.9A52.4 52.4 0 0 1 75.1 0c9.7.2 18.5 3 25.9 9.3A38 38 0 0 1 112.6 26a30.9 30.9 0 0 1 1.5 7.9A108.6 108.6 0 0 1 114 50c-.2 2-.3 3.9-.4 6.1z"/></symbol><symbol id="twitter" viewBox="0 0 167.8 137.4"><path fill="#fff" d="M.1 121.6c18.2 1.4 34.8-2.9 49.9-14.2-7.5-.8-14.1-2.8-19.8-7.2a33.5 33.5 0 0 1-12.1-17c5 .2 9.7.5 14.3-.6C15.8 77.1 6.8 65.9 5.9 48.3a38.8 38.8 0 0 0 14.6 3.8C13.6 46.6 8.8 39.8 7 31.1a35.4 35.4 0 0 1 3.6-24.8l8.3 8.2c17.3 17 38.2 25.8 62.2 27.7h.9c-.1-.6-.1-1.2-.1-1.8-.8-8-.3-15.9 4.1-23C93.6 4.9 104.7-1.2 119.6 0a32 32 0 0 1 19.5 8.6c1.8 1.6 3.5 2.1 5.7 1.3l14.6-5.6 4-1.8c-2.7 7.7-7.5 13.4-13.9 18.4 3.5.1 6.4-.9 9.3-1.7s5.7-1.8 9-2.9l-1.2 1.9A70.5 70.5 0 0 1 153 32.3a4.6 4.6 0 0 0-2 4 108.6 108.6 0 0 1-2.3 22.4c-6 26.2-19.6 47.4-42 62.6A87.4 87.4 0 0 1 66.9 136c-13.5 1.5-27.1 1.4-40.4-2.2a107.9 107.9 0 0 1-24.9-10.6l-1.6-1z"/></symbol><symbol id="icons-colour" viewBox="0 0 138.4 138.4"><path fill="#0036ce" d="M55.871 63.884v20.963h17.471c.528 0 .529.001.529.524v52.505c0 .51-.001.512-.505.512-21.877 0-43.754-.011-65.631.01-3.862.004-6.975-2.732-7.593-6.174-.107-.595-.13-1.211-.13-1.817C.007 103.508.008 76.61.008 49.712.008 35.761.014 21.81 0 7.859c-.002-1.917.511-3.634 1.744-5.102C3.194 1.03 5.055.1 7.322.018 7.561.01 7.8.009 8.039.009 48.804.008 89.57.011 130.335 0c1.657 0 3.21.297 4.593 1.23 2.275 1.536 3.421 3.695 3.459 6.44.002.12.001.239.001.359 0 40.777-.002 81.555.006 122.332 0 1.72-.341 3.326-1.351 4.737-1.57 2.193-3.716 3.291-6.421 3.29-9.755-.002-19.51-.001-29.265-.001h-5.2c-.608 0-.608 0-.608-.593V85.397c0-.549.001-.55.543-.55h16.784c.131 0 .263-.004.394-.002.184.003.275-.068.3-.268.283-2.271.572-4.542.865-6.812.275-2.128.563-4.255.837-6.383.275-2.128.54-4.258.811-6.387.045-.351.093-.702.147-1.111H96.044c-.495 0-.496 0-.496-.481.006-4.734-.001-9.468.027-14.202a11.84 11.84 0 0 1 .586-3.589c.802-2.477 2.547-3.936 5.003-4.628 1.636-.461 3.316-.557 5-.565 3.419-.015 6.838-.004 10.257-.004h.492V21.661c-.658-.073-1.306-.167-1.957-.214-2.107-.153-4.214-.344-6.325-.418-2.985-.105-5.974-.201-8.959-.151-4.968.083-9.7 1.179-14.011 3.749-4.815 2.871-8.039 7.047-9.927 12.289-.82 2.276-1.374 4.619-1.58 7.029a68.685 68.685 0 0 0-.272 5.327c-.037 4.71-.012 9.42-.013 14.13 0 .482-.001.483-.491.483H56.414l-.543-.001z"/><path fill="#f800ff" d="M240.715 138.187c-9.145 0-18.29.015-27.435-.003-18.251-.035-33.361-10.56-39.22-27.809-1.421-4.184-2.072-8.812-2.126-13.247-.229-18.614-.141-37.232-.085-55.849.059-19.617 12.962-35.804 32.061-40.131 3.027-.686 6.214-.914 9.328-.928C231.658.137 250.079.154 268.5.186c19.79.034 35.942 12.799 40.359 32.02.695 3.024.929 6.212.944 9.326.085 18.42.063 36.841.036 55.262-.029 19.817-12.709 35.905-31.975 40.39-3.083.718-6.338.918-9.519.96-9.208.122-18.42.043-27.63.043zm.123-12.546c9.145 0 18.29.04 27.434-.028 2.272-.017 4.594-.143 6.802-.632 13.344-2.957 22.172-13.993 22.211-27.773.053-18.681.033-37.363-.014-56.044-.005-2.075-.177-4.195-.627-6.215-2.972-13.341-13.999-22.171-27.779-22.21-18.681-.053-37.363-.033-56.044.014-2.075.005-4.195.177-6.215.627-13.341 2.972-22.171 13.999-22.21 27.779-.053 18.681-.033 37.363.014 56.044.005 2.075.177 4.195.627 6.215 2.957 13.271 13.94 22.111 27.583 22.209 9.406.067 18.812.012 28.218.014z"/><path fill="#00f" d="M240.785 31.55c20.66-.046 37.682 16.947 37.688 37.625.006 20.675-17.008 37.674-37.674 37.639-20.614-.034-37.506-16.898-37.59-37.527-.085-20.648 16.885-37.691 37.576-37.737zm.095 12.547c-13.85-.022-25.047 11.097-25.125 24.949-.078 13.923 11.121 25.2 25.047 25.223 13.85.022 25.047-11.097 25.125-24.949.078-13.924-11.121-25.201-25.047-25.223z"/><path fill="#ff7f00" d="M283.565 32.054c.043 3.152-2.542 5.765-5.693 5.754-3.074-.011-5.612-2.522-5.654-5.597-.043-3.152 2.542-5.765 5.693-5.754 3.074.01 5.611 2.522 5.654 5.597z"/><path fill="#0086ff" d="M318.923 122.074c18.24 1.421 34.815-2.919 49.905-14.225-7.456-.813-14.108-2.827-19.819-7.192-5.708-4.362-9.862-9.855-12.084-16.95 4.965.179 9.655.503 14.272-.641-16.542-5.484-25.526-16.681-26.443-34.273 4.675 2.163 9.463 3.522 14.65 3.766-6.913-5.506-11.77-12.317-13.56-21.006-1.767-8.573-.71-16.801 3.591-24.764 2.856 2.797 5.593 5.474 8.327 8.153 17.293 16.951 38.18 25.84 62.191 27.719.214.017.431.002.882.002-.052-.645-.088-1.213-.145-1.778-.8-8.033-.31-15.865 4.06-22.954C412.48 5.389 423.6-.688 438.466.48c7.522.591 14.006 3.567 19.523 8.599 1.769 1.613 3.51 2.112 5.678 1.294 4.872-1.839 9.742-3.683 14.601-5.555 1.223-.471 2.401-1.057 4.029-1.781-2.726 7.742-7.511 13.395-13.94 18.387 3.524.078 6.403-.935 9.296-1.726 2.883-.789 5.707-1.794 9.05-2.862-.577.905-.858 1.407-1.196 1.867-3.893 5.303-8.388 10.048-13.578 14.078-1.424 1.106-1.97 2.253-2.002 3.974-.142 7.537-.634 15.051-2.331 22.422-6.035 26.212-19.566 47.444-42.011 62.618-12.037 8.137-25.364 13.145-39.794 14.734-13.547 1.492-27.09 1.397-40.399-2.247-8.796-2.408-17.043-6.088-24.944-10.59-.548-.312-1.056-.693-1.582-1.043.017-.19.037-.382.057-.575z"/><path fill="#fff800" d="M609.281 56.198c.834-.064 1.565-.012 2.232-.194a33.126 33.126 0 0 0 3.877-1.293c3.797-1.562 7.249-.857 10.3 1.689 2.865 2.391 3.016 6.123.558 8.936-.955 1.094-2.124 1.915-3.375 2.627-1.82 1.036-3.784 1.718-5.763 2.378a43.515 43.515 0 0 0-4.083 1.594c-.67.302-1.282.774-1.846 1.255-.771.658-1.075 1.543-.872 2.551.115.571.23 1.159.464 1.686 3.479 7.81 8.518 14.369 15.612 19.238 3.726 2.557 7.84 4.203 12.299 4.98 2.208.385 3.67 1.964 3.839 4.187.086 1.13-.257 2.185-.854 3.153-.735 1.192-1.767 2.076-2.929 2.823-2.075 1.334-4.357 2.216-6.723 2.824-2.705.696-5.449 1.243-8.185 1.818-1.038.218-1.049.171-1.302 1.24-.345 1.456-.651 2.922-1.039 4.366-.738 2.746-2.542 4.106-5.372 3.934-1.487-.091-2.966-.384-4.438-.644-3.885-.686-7.772-.74-11.657-.061-1.651.288-3.179.961-4.596 1.84a101.465 101.465 0 0 0-4.565 3.007c-3.399 2.373-6.924 4.512-10.796 6.036-3.925 1.544-7.983 2.356-12.211 2.156-4.288-.203-8.32-1.398-12.18-3.233-2.92-1.388-5.647-3.095-8.292-4.947-1.28-.896-2.587-1.752-3.888-2.618-2.681-1.785-5.676-2.515-8.856-2.677-3.309-.169-6.56.196-9.796.852-1.078.218-2.191.366-3.287.366-2.359.001-4.023-1.26-4.701-3.527-.409-1.369-.686-2.778-1.024-4.169-.13-.537-.262-1.073-.413-1.689-1.109-.207-2.224-.406-3.335-.626-3.482-.689-6.93-1.502-10.192-2.949-1.646-.73-3.194-1.624-4.443-2.955-1.01-1.076-1.678-2.321-1.743-3.825-.098-2.247 1.335-4.245 3.539-4.622 9.09-1.554 16.027-6.525 21.694-13.533 2.55-3.153 4.688-6.569 6.316-10.291.247-.564.452-1.153.605-1.748.321-1.251.017-2.362-1.029-3.136-.778-.576-1.618-1.111-2.507-1.482-1.467-.613-2.991-1.092-4.5-1.603-2.012-.681-3.942-1.528-5.707-2.723-1.004-.68-1.907-1.474-2.623-2.461-1.751-2.416-1.606-5.395.341-7.644 2.043-2.359 6.619-4.189 10.333-2.324 1.635.821 3.382 1.361 5.236 1.43.477.018.957-.045 1.481-.073 0-.54.019-.99-.003-1.437-.192-3.999-.456-7.997-.57-11.998-.112-3.906.006-7.806.529-11.695.584-4.348 2.237-8.265 4.464-11.986 5.647-9.437 13.941-15.174 24.601-17.603A52.339 52.339 0 0 1 570.794.087c9.662.226 18.451 3.045 25.942 9.32 5.358 4.488 9.181 10.088 11.529 16.67.913 2.559 1.273 5.246 1.492 7.943.437 5.369.243 10.737-.118 16.102-.129 1.946-.23 3.893-.358 6.076z"/><path fill="red" d="M727.245 138.397c-9.551-8.895-18.944-17.387-28.04-26.185-9.982-9.654-19.959-19.339-29.438-29.479-8.545-9.14-14.647-19.745-17.276-32.292-5.7-27.2 15.305-47.057 32.219-49.497 16.063-2.318 28.682 3.904 38.691 16.198.64.786 1.213 1.625 1.806 2.448.53.736 1.046 1.482 1.823 2.587 1.169-1.566 2.202-2.978 3.264-4.369 6.435-8.427 14.58-14.379 25.075-16.535 16.375-3.364 31.831 3.83 41.157 18.851 8.933 14.389 7.249 29.045.787 43.621-5.059 11.412-13.381 20.55-22.196 29.112-15.712 15.259-31.722 30.209-47.872 45.54z"/><path d="M956.194 0v29.831h-144.49V0h144.49zm.002 53.334v29.85h-144.5v-29.85h144.5zm-144.487 55.15h144.38v29.913h-144.38v-29.913zm246.827-42.41l51.16 51.16c-7.07 7.07-14 13.99-21.09 21.09-17.05-17.05-34.1-34.1-51.16-51.15-17.03 17.02-34.07 34.07-51.16 51.15-7.07-7.07-13.99-14-21.09-21.09l51.16-51.16c-17.04-17.03-34.09-34.08-51.16-51.16 6.98-6.98 13.96-13.95 21.09-21.09l51.16 51.16 51.16-51.16 21.09 21.09-51.16 51.16z"/></symbol><symbol id="twitter-hover" viewBox="0 0 167.84 137.1"><path fill="#0086ff" d="M.06 121.736c18.24 1.421 34.815-2.919 49.905-14.225-7.456-.813-14.108-2.827-19.819-7.192-5.708-4.362-9.862-9.855-12.084-16.95 4.965.179 9.655.503 14.272-.641-16.542-5.483-25.526-16.68-26.443-34.272 4.675 2.163 9.463 3.522 14.65 3.766-6.913-5.506-11.77-12.317-13.56-21.006-1.767-8.573-.71-16.801 3.591-24.764 2.856 2.797 5.593 5.474 8.327 8.153 17.293 16.951 38.18 25.84 62.191 27.719.214.017.431.002.882.002-.052-.645-.088-1.213-.145-1.778-.8-8.033-.31-15.865 4.059-22.954C93.617 5.051 104.737-1.026 119.603.142c7.522.591 14.006 3.567 19.523 8.599 1.769 1.613 3.51 2.112 5.678 1.294 4.872-1.839 9.742-3.683 14.601-5.555 1.223-.471 2.401-1.057 4.029-1.781-2.726 7.742-7.511 13.395-13.94 18.387 3.524.078 6.403-.935 9.296-1.726 2.883-.789 5.707-1.794 9.05-2.862-.577.905-.858 1.407-1.196 1.867-3.893 5.303-8.388 10.048-13.578 14.078-1.424 1.106-1.97 2.253-2.002 3.974-.142 7.537-.634 15.051-2.331 22.422-6.035 26.212-19.566 47.444-42.011 62.618-12.037 8.137-25.364 13.145-39.794 14.734-13.547 1.492-27.09 1.397-40.399-2.247-8.796-2.408-17.043-6.088-24.944-10.59-.548-.312-1.056-.693-1.582-1.043.017-.191.037-.383.057-.575z"/></symbol><symbol id="icons-white" viewBox="0 0 151.16 138.4"><path fill="#fff" d="M-595.665 63.884v20.963h17.471c.528 0 .529.001.529.524v52.505c0 .51-.001.512-.505.512-21.877 0-43.754-.011-65.631.01-3.862.004-6.975-2.732-7.593-6.174-.107-.595-.13-1.211-.13-1.817-.006-26.898-.005-53.796-.005-80.694 0-13.951.006-27.902-.008-41.853-.002-1.917.511-3.634 1.744-5.102 1.45-1.726 3.31-2.657 5.578-2.738.239-.009.478-.01.717-.01 40.765 0 81.531.002 122.296-.009 1.657 0 3.21.297 4.593 1.23 2.275 1.536 3.421 3.695 3.459 6.44.002.12.001.239.001.359 0 40.777-.002 81.555.006 122.332 0 1.72-.341 3.326-1.351 4.737-1.57 2.193-3.716 3.291-6.421 3.29-9.755-.002-19.51-.001-29.265-.001h-5.2c-.608 0-.608 0-.608-.593V85.398c0-.549.001-.55.543-.55h16.784c.131 0 .263-.004.394-.002.184.003.275-.068.3-.268.283-2.271.572-4.542.865-6.812.275-2.128.563-4.255.837-6.383.275-2.128.54-4.258.811-6.387.045-.351.093-.702.147-1.111h-20.186c-.495 0-.496 0-.495-.481.006-4.734-.001-9.468.027-14.202a11.84 11.84 0 0 1 .586-3.589c.802-2.477 2.547-3.936 5.003-4.628 1.636-.461 3.316-.557 5-.565 3.419-.015 6.838-.004 10.257-.004h.492V21.662c-.658-.073-1.306-.167-1.957-.214-2.107-.153-4.214-.344-6.325-.418-2.985-.105-5.974-.201-8.959-.151-4.968.083-9.7 1.179-14.011 3.749-4.815 2.871-8.039 7.047-9.927 12.289-.82 2.276-1.374 4.619-1.58 7.029a68.685 68.685 0 0 0-.272 5.327c-.037 4.71-.012 9.42-.013 14.13 0 .482-.001.483-.491.483h-16.964c-.164-.002-.331-.002-.543-.002z"/><g fill="#fff"><path d="M-410.821 138.187c-9.145 0-18.29.015-27.435-.003-18.251-.035-33.361-10.56-39.22-27.809-1.421-4.184-2.072-8.812-2.126-13.247-.229-18.614-.141-37.232-.085-55.849.059-19.617 12.962-35.804 32.061-40.131 3.027-.686 6.214-.914 9.328-.928 18.42-.083 36.841-.066 55.262-.034 19.79.034 35.942 12.799 40.359 32.02.695 3.024.929 6.212.944 9.326.085 18.42.063 36.841.036 55.262-.029 19.817-12.709 35.905-31.975 40.39-3.083.718-6.338.918-9.518.96-9.21.122-18.421.043-27.631.043zm.123-12.546c9.145 0 18.29.04 27.434-.028 2.272-.017 4.594-.143 6.802-.632 13.344-2.957 22.172-13.993 22.211-27.773.053-18.681.033-37.363-.014-56.044-.005-2.075-.177-4.195-.627-6.215-2.972-13.341-13.999-22.171-27.779-22.21-18.681-.053-37.363-.033-56.044.014-2.075.005-4.195.177-6.215.627-13.341 2.972-22.171 13.999-22.21 27.779-.053 18.681-.033 37.363.014 56.044.005 2.075.177 4.195.627 6.215 2.957 13.271 13.94 22.111 27.583 22.209 9.406.067 18.812.012 28.218.014z"/><path d="M-410.751 31.55c20.66-.046 37.682 16.947 37.688 37.625.006 20.675-17.008 37.674-37.674 37.639-20.614-.034-37.505-16.898-37.59-37.527-.086-20.648 16.884-37.691 37.576-37.737zm.094 12.547c-13.85-.022-25.047 11.097-25.125 24.949-.078 13.923 11.121 25.2 25.047 25.223 13.85.022 25.047-11.097 25.125-24.949.078-13.924-11.12-25.201-25.047-25.223zm42.686-12.043c.043 3.152-2.542 5.765-5.693 5.754-3.074-.011-5.612-2.522-5.654-5.597-.043-3.152 2.542-5.765 5.693-5.754 3.074.01 5.611 2.522 5.654 5.597z"/></g><path fill="#fff" d="M-332.613 122.074c18.24 1.421 34.815-2.919 49.905-14.225-7.456-.813-14.108-2.827-19.819-7.192-5.708-4.362-9.862-9.855-12.084-16.95 4.965.179 9.655.503 14.272-.641-16.542-5.484-25.526-16.681-26.443-34.273 4.675 2.163 9.463 3.522 14.65 3.766-6.913-5.506-11.77-12.317-13.56-21.006-1.767-8.573-.71-16.801 3.591-24.764 2.856 2.797 5.593 5.474 8.327 8.153 17.293 16.951 38.18 25.84 62.191 27.719.214.017.431.002.882.002-.052-.645-.088-1.213-.145-1.778-.8-8.033-.31-15.865 4.059-22.954C-239.056 5.388-227.936-.689-213.07.479c7.522.591 14.006 3.567 19.523 8.599 1.769 1.613 3.51 2.112 5.678 1.294 4.872-1.839 9.742-3.683 14.601-5.555 1.223-.471 2.401-1.057 4.029-1.781-2.726 7.742-7.511 13.395-13.94 18.387 3.524.078 6.403-.935 9.296-1.726 2.883-.789 5.707-1.794 9.05-2.862-.577.905-.858 1.407-1.196 1.867-3.893 5.303-8.388 10.048-13.578 14.078-1.424 1.106-1.97 2.253-2.002 3.974-.142 7.537-.634 15.051-2.331 22.422-6.035 26.212-19.566 47.444-42.011 62.618-12.037 8.137-25.364 13.145-39.794 14.734-13.547 1.492-27.09 1.397-40.399-2.247-8.796-2.408-17.043-6.088-24.944-10.59-.548-.312-1.056-.693-1.582-1.043.017-.189.037-.381.057-.574zm290.358-65.876c.834-.064 1.565-.012 2.232-.194a33.126 33.126 0 0 0 3.877-1.293c3.797-1.562 7.249-.857 10.3 1.689 2.865 2.391 3.016 6.123.558 8.936-.955 1.094-2.124 1.915-3.375 2.627-1.821 1.036-3.784 1.718-5.763 2.378a43.515 43.515 0 0 0-4.083 1.594c-.67.302-1.282.774-1.846 1.255-.771.658-1.075 1.543-.872 2.551.115.571.23 1.159.464 1.686 3.479 7.81 8.518 14.369 15.612 19.238 3.726 2.557 7.84 4.203 12.299 4.98 2.208.385 3.67 1.964 3.839 4.187.086 1.13-.257 2.185-.853 3.153-.735 1.192-1.767 2.076-2.929 2.823-2.075 1.334-4.357 2.216-6.723 2.824-2.705.696-5.449 1.243-8.184 1.818-1.038.218-1.049.171-1.302 1.24-.345 1.456-.651 2.922-1.039 4.366-.738 2.746-2.542 4.106-5.372 3.934-1.487-.091-2.966-.384-4.438-.644-3.885-.686-7.772-.74-11.657-.061-1.651.288-3.179.961-4.596 1.84a101.465 101.465 0 0 0-4.565 3.007c-3.399 2.373-6.924 4.512-10.796 6.036-3.925 1.544-7.983 2.356-12.211 2.156-4.288-.203-8.32-1.398-12.18-3.233-2.92-1.388-5.647-3.095-8.292-4.947-1.28-.896-2.587-1.752-3.888-2.618-2.681-1.785-5.676-2.515-8.856-2.677-3.309-.169-6.56.196-9.796.852-1.078.218-2.191.366-3.287.366-2.359.001-4.023-1.26-4.701-3.527-.409-1.369-.686-2.778-1.024-4.169-.13-.537-.262-1.073-.413-1.689-1.109-.207-2.224-.406-3.335-.626-3.482-.689-6.93-1.502-10.192-2.949-1.646-.73-3.194-1.624-4.443-2.955-1.01-1.076-1.678-2.321-1.743-3.825-.098-2.247 1.335-4.245 3.539-4.622 9.09-1.554 16.027-6.525 21.694-13.533 2.55-3.153 4.688-6.569 6.316-10.291.247-.564.452-1.153.605-1.748.321-1.251.017-2.362-1.029-3.136-.778-.576-1.618-1.111-2.507-1.482-1.467-.613-2.991-1.092-4.5-1.603-2.012-.681-3.942-1.528-5.707-2.723-1.004-.68-1.907-1.474-2.623-2.461-1.751-2.416-1.606-5.395.341-7.644 2.043-2.359 6.619-4.189 10.333-2.324 1.635.821 3.382 1.361 5.236 1.43.477.018.957-.045 1.481-.073 0-.54.019-.99-.003-1.437-.192-3.999-.456-7.997-.57-11.998-.112-3.906.006-7.806.529-11.695.584-4.348 2.237-8.265 4.464-11.986 5.647-9.437 13.941-15.174 24.601-17.603A52.339 52.339 0 0 1-80.74.087c9.662.226 18.451 3.045 25.942 9.32 5.358 4.488 9.181 10.088 11.529 16.67.913 2.559 1.273 5.246 1.492 7.943.437 5.369.243 10.737-.118 16.102-.131 1.946-.232 3.893-.36 6.076zm117.964 82.199c-9.551-8.895-18.944-17.387-28.04-26.185-9.982-9.654-19.959-19.339-29.438-29.479C9.686 73.593 3.583 62.989.954 50.442c-5.7-27.2 15.305-47.057 32.219-49.497 16.063-2.318 28.682 3.904 38.691 16.198.64.786 1.213 1.625 1.806 2.448.53.736 1.046 1.482 1.823 2.587 1.169-1.566 2.202-2.978 3.264-4.369 6.435-8.427 14.58-14.379 25.075-16.535 16.375-3.364 31.831 3.83 41.157 18.851 8.933 14.389 7.249 29.045.787 43.621-5.059 11.412-13.381 20.55-22.196 29.112-15.711 15.258-31.721 30.208-47.871 45.539zM304.658 0v29.831h-144.49V0h144.49zm.002 53.334v29.85h-144.5v-29.85h144.5zm-144.487 55.15h144.38v29.913h-144.38v-29.913zM407 66.074l51.16 51.16c-7.07 7.07-14 13.99-21.09 21.09-17.05-17.05-34.1-34.1-51.16-51.15-17.03 17.02-34.07 34.07-51.16 51.15-7.07-7.07-13.99-14-21.09-21.09l51.16-51.16c-17.04-17.03-34.09-34.08-51.16-51.16 6.98-6.98 13.96-13.95 21.09-21.09l51.16 51.16 51.16-51.16 21.09 21.09L407 66.074z"/></symbol></svg>