<svg xmlns="http://www.w3.org/2000/svg" viewBox="0 0 138.4 138.4"><path fill="#0036ce" d="M55.871 63.884v20.963h17.471c.528 0 .529.001.529.524v52.505c0 .51-.001.512-.505.512-21.877 0-43.754-.011-65.631.01-3.862.004-6.975-2.732-7.593-6.174-.107-.595-.13-1.211-.13-1.817C.007 103.508.008 76.61.008 49.712.008 35.761.014 21.81 0 7.859c-.002-1.917.511-3.634 1.744-5.102C3.194 1.03 5.055.1 7.322.018 7.561.01 7.8.009 8.039.009 48.804.008 89.57.011 130.335 0c1.657 0 3.21.297 4.593 1.23 2.275 1.536 3.421 3.695 3.459 6.44.002.12.001.239.001.359 0 40.777-.002 81.555.006 122.332 0 1.72-.341 3.326-1.351 4.737-1.57 2.193-3.716 3.291-6.421 3.29-9.755-.002-19.51-.001-29.265-.001h-5.2c-.608 0-.608 0-.608-.593V85.397c0-.549.001-.55.543-.55h16.784c.131 0 .263-.004.394-.002.184.003.275-.068.3-.268.283-2.271.572-4.542.865-6.812.275-2.128.563-4.255.837-6.383.275-2.128.54-4.258.811-6.387.045-.351.093-.702.147-1.111H96.044c-.495 0-.496 0-.496-.481.006-4.734-.001-9.468.027-14.202a11.84 11.84 0 0 1 .586-3.589c.802-2.477 2.547-3.936 5.003-4.628 1.636-.461 3.316-.557 5-.565 3.419-.015 6.838-.004 10.257-.004h.492V21.661c-.658-.073-1.306-.167-1.957-.214-2.107-.153-4.214-.344-6.325-.418-2.985-.105-5.974-.201-8.959-.151-4.968.083-9.7 1.179-14.011 3.749-4.815 2.871-8.039 7.047-9.927 12.289-.82 2.276-1.374 4.619-1.58 7.029a68.685 68.685 0 0 0-.272 5.327c-.037 4.71-.012 9.42-.013 14.13 0 .482-.001.483-.491.483H56.414l-.543-.001z"/><path fill="#f800ff" d="M240.715 138.187c-9.145 0-18.29.015-27.435-.003-18.251-.035-33.361-10.56-39.22-27.809-1.421-4.184-2.072-8.812-2.126-13.247-.229-18.614-.141-37.232-.085-55.849.059-19.617 12.962-35.804 32.061-40.131 3.027-.686 6.214-.914 9.328-.928C231.658.137 250.079.154 268.5.186c19.79.034 35.942 12.799 40.359 32.02.695 3.024.929 6.212.944 9.326.085 18.42.063 36.841.036 55.262-.029 19.817-12.709 35.905-31.975 40.39-3.083.718-6.338.918-9.519.96-9.208.122-18.42.043-27.63.043zm.123-12.546c9.145 0 18.29.04 27.434-.028 2.272-.017 4.594-.143 6.802-.632 13.344-2.957 22.172-13.993 22.211-27.773.053-18.681.033-37.363-.014-56.044-.005-2.075-.177-4.195-.627-6.215-2.972-13.341-13.999-22.171-27.779-22.21-18.681-.053-37.363-.033-56.044.014-2.075.005-4.195.177-6.215.627-13.341 2.972-22.171 13.999-22.21 27.779-.053 18.681-.033 37.363.014 56.044.005 2.075.177 4.195.627 6.215 2.957 13.271 13.94 22.111 27.583 22.209 9.406.067 18.812.012 28.218.014z"/><path fill="#00f" d="M240.785 31.55c20.66-.046 37.682 16.947 37.688 37.625.006 20.675-17.008 37.674-37.674 37.639-20.614-.034-37.506-16.898-37.59-37.527-.085-20.648 16.885-37.691 37.576-37.737zm.095 12.547c-13.85-.022-25.047 11.097-25.125 24.949-.078 13.923 11.121 25.2 25.047 25.223 13.85.022 25.047-11.097 25.125-24.949.078-13.924-11.121-25.201-25.047-25.223z"/><path fill="#ff7f00" d="M283.565 32.054c.043 3.152-2.542 5.765-5.693 5.754-3.074-.011-5.612-2.522-5.654-5.597-.043-3.152 2.542-5.765 5.693-5.754 3.074.01 5.611 2.522 5.654 5.597z"/><path fill="#0086ff" d="M318.923 122.074c18.24 1.421 34.815-2.919 49.905-14.225-7.456-.813-14.108-2.827-19.819-7.192-5.708-4.362-9.862-9.855-12.084-16.95 4.965.179 9.655.503 14.272-.641-16.542-5.484-25.526-16.681-26.443-34.273 4.675 2.163 9.463 3.522 14.65 3.766-6.913-5.506-11.77-12.317-13.56-21.006-1.767-8.573-.71-16.801 3.591-24.764 2.856 2.797 5.593 5.474 8.327 8.153 17.293 16.951 38.18 25.84 62.191 27.719.214.017.431.002.882.002-.052-.645-.088-1.213-.145-1.778-.8-8.033-.31-15.865 4.06-22.954C412.48 5.389 423.6-.688 438.466.48c7.522.591 14.006 3.567 19.523 8.599 1.769 1.613 3.51 2.112 5.678 1.294 4.872-1.839 9.742-3.683 14.601-5.555 1.223-.471 2.401-1.057 4.029-1.781-2.726 7.742-7.511 13.395-13.94 18.387 3.524.078 6.403-.935 9.296-1.726 2.883-.789 5.707-1.794 9.05-2.862-.577.905-.858 1.407-1.196 1.867-3.893 5.303-8.388 10.048-13.578 14.078-1.424 1.106-1.97 2.253-2.002 3.974-.142 7.537-.634 15.051-2.331 22.422-6.035 26.212-19.566 47.444-42.011 62.618-12.037 8.137-25.364 13.145-39.794 14.734-13.547 1.492-27.09 1.397-40.399-2.247-8.796-2.408-17.043-6.088-24.944-10.59-.548-.312-1.056-.693-1.582-1.043.017-.19.037-.382.057-.575z"/><path fill="#fff800" d="M609.281 56.198c.834-.064 1.565-.012 2.232-.194a33.126 33.126 0 0 0 3.877-1.293c3.797-1.562 7.249-.857 10.3 1.689 2.865 2.391 3.016 6.123.558 8.936-.955 1.094-2.124 1.915-3.375 2.627-1.82 1.036-3.784 1.718-5.763 2.378a43.515 43.515 0 0 0-4.083 1.594c-.67.302-1.282.774-1.846 1.255-.771.658-1.075 1.543-.872 2.551.115.571.23 1.159.464 1.686 3.479 7.81 8.518 14.369 15.612 19.238 3.726 2.557 7.84 4.203 12.299 4.98 2.208.385 3.67 1.964 3.839 4.187.086 1.13-.257 2.185-.854 3.153-.735 1.192-1.767 2.076-2.929 2.823-2.075 1.334-4.357 2.216-6.723 2.824-2.705.696-5.449 1.243-8.185 1.818-1.038.218-1.049.171-1.302 1.24-.345 1.456-.651 2.922-1.039 4.366-.738 2.746-2.542 4.106-5.372 3.934-1.487-.091-2.966-.384-4.438-.644-3.885-.686-7.772-.74-11.657-.061-1.651.288-3.179.961-4.596 1.84a101.465 101.465 0 0 0-4.565 3.007c-3.399 2.373-6.924 4.512-10.796 6.036-3.925 1.544-7.983 2.356-12.211 2.156-4.288-.203-8.32-1.398-12.18-3.233-2.92-1.388-5.647-3.095-8.292-4.947-1.28-.896-2.587-1.752-3.888-2.618-2.681-1.785-5.676-2.515-8.856-2.677-3.309-.169-6.56.196-9.796.852-1.078.218-2.191.366-3.287.366-2.359.001-4.023-1.26-4.701-3.527-.409-1.369-.686-2.778-1.024-4.169-.13-.537-.262-1.073-.413-1.689-1.109-.207-2.224-.406-3.335-.626-3.482-.689-6.93-1.502-10.192-2.949-1.646-.73-3.194-1.624-4.443-2.955-1.01-1.076-1.678-2.321-1.743-3.825-.098-2.247 1.335-4.245 3.539-4.622 9.09-1.554 16.027-6.525 21.694-13.533 2.55-3.153 4.688-6.569 6.316-10.291.247-.564.452-1.153.605-1.748.321-1.251.017-2.362-1.029-3.136-.778-.576-1.618-1.111-2.507-1.482-1.467-.613-2.991-1.092-4.5-1.603-2.012-.681-3.942-1.528-5.707-2.723-1.004-.68-1.907-1.474-2.623-2.461-1.751-2.416-1.606-5.395.341-7.644 2.043-2.359 6.619-4.189 10.333-2.324 1.635.821 3.382 1.361 5.236 1.43.477.018.957-.045 1.481-.073 0-.54.019-.99-.003-1.437-.192-3.999-.456-7.997-.57-11.998-.112-3.906.006-7.806.529-11.695.584-4.348 2.237-8.265 4.464-11.986 5.647-9.437 13.941-15.174 24.601-17.603A52.339 52.339 0 0 1 570.794.087c9.662.226 18.451 3.045 25.942 9.32 5.358 4.488 9.181 10.088 11.529 16.67.913 2.559 1.273 5.246 1.492 7.943.437 5.369.243 10.737-.118 16.102-.129 1.946-.23 3.893-.358 6.076z"/><path fill="red" d="M727.245 138.397c-9.551-8.895-18.944-17.387-28.04-26.185-9.982-9.654-19.959-19.339-29.438-29.479-8.545-9.14-14.647-19.745-17.276-32.292-5.7-27.2 15.305-47.057 32.219-49.497 16.063-2.318 28.682 3.904 38.691 16.198.64.786 1.213 1.625 1.806 2.448.53.736 1.046 1.482 1.823 2.587 1.169-1.566 2.202-2.978 3.264-4.369 6.435-8.427 14.58-14.379 25.075-16.535 16.375-3.364 31.831 3.83 41.157 18.851 8.933 14.389 7.249 29.045.787 43.621-5.059 11.412-13.381 20.55-22.196 29.112-15.712 15.259-31.722 30.209-47.872 45.54z"/><path d="M956.194 0v29.831h-144.49V0h144.49zm.002 53.334v29.85h-144.5v-29.85h144.5zm-144.487 55.15h144.38v29.913h-144.38v-29.913zm246.827-42.41l51.16 51.16c-7.07 7.07-14 13.99-21.09 21.09-17.05-17.05-34.1-34.1-51.16-51.15-17.03 17.02-34.07 34.07-51.16 51.15-7.07-7.07-13.99-14-21.09-21.09l51.16-51.16c-17.04-17.03-34.09-34.08-51.16-51.16 6.98-6.98 13.96-13.95 21.09-21.09l51.16 51.16 51.16-51.16 21.09 21.09-51.16 51.16z"/></svg>