<svg xmlns="http://www.w3.org/2000/svg" width="1.9in" height="1.9in" data-name="Layer 1" viewBox="0 0 138.1 138"><path fill="#fff" d="M68.9 138H41.5c-18.3 0-33.4-10.6-39.2-27.8A43.5 43.5 0 0 1 .1 96.9C-.1 78.3 0 59.7.1 41.1A40.6 40.6 0 0 1 32.1 1a43.4 43.4 0 0 1 9.4-1h55.2c19.8 0 35.9 12.8 40.4 32a42.8 42.8 0 0 1 .9 9.3c.1 18.4.1 36.8 0 55.3s-12.7 35.9-32 40.4a44.9 44.9 0 0 1-9.5 1c-9.1.1-18.4 0-27.6 0zm.1-12.5h27.5a32.8 32.8 0 0 0 6.8-.6c13.3-3 22.2-14 22.2-27.8q.1-28 0-56a29.1 29.1 0 0 0-.6-6.2c-3-13.3-14-22.2-27.8-22.2H41a29.1 29.1 0 0 0-6.2.6c-13.3 3-22.2 14-22.2 27.8q-.1 28 0 56a29.1 29.1 0 0 0 .6 6.2 27.8 27.8 0 0 0 27.6 22.2z"/><path fill="#fff" d="M69 31.4a37.6 37.6 0 1 1-37.6 37.7A37.8 37.8 0 0 1 69 31.4zm.1 12.5a25.1 25.1 0 1 0 25 25.2 25 25 0 0 0-25-25.2zm42.7-12a5.7 5.7 0 1 1-5.7-5.6 5.7 5.7 0 0 1 5.7 5.6z"/></svg>