<svg xmlns="http://www.w3.org/2000/svg" viewBox="0 0 138.4 138.39"><path fill="#f800ff" d="M69.088 138.195c-9.145 0-18.29.015-27.435-.003-18.251-.035-33.361-10.56-39.22-27.809-1.421-4.184-2.072-8.812-2.126-13.247C.078 78.522.166 59.904.222 41.287.281 21.67 13.184 5.483 32.283 1.156 35.31.47 38.497.242 41.611.228 60.031.145 78.452.162 96.873.194c19.79.034 35.942 12.799 40.359 32.02.695 3.024.929 6.212.944 9.326.085 18.42.063 36.841.036 55.262-.03 19.817-12.709 35.905-31.975 40.39-3.083.718-6.338.918-9.519.96-9.208.122-18.419.043-27.63.043zm.124-12.546c9.145 0 18.29.04 27.434-.028 2.272-.017 4.594-.143 6.802-.632 13.344-2.957 22.172-13.993 22.211-27.773.053-18.681.033-37.363-.014-56.044-.005-2.075-.177-4.195-.627-6.215-2.972-13.341-13.999-22.171-27.779-22.21-18.681-.053-37.363-.033-56.044.014-2.075.005-4.195.177-6.215.627-13.341 2.972-22.171 13.999-22.21 27.778-.053 18.681-.033 37.363.014 56.044.005 2.075.177 4.195.627 6.215 2.957 13.271 13.94 22.111 27.583 22.209 9.405.069 18.812.014 28.218.015z"/><path fill="#00f" d="M69.158 31.559c20.66-.046 37.682 16.947 37.688 37.625.006 20.675-17.008 37.674-37.674 37.639-20.614-.034-37.506-16.898-37.59-37.527-.085-20.648 16.885-37.691 37.576-37.737zm.095 12.546c-13.85-.022-25.047 11.097-25.125 24.949-.078 13.923 11.121 25.2 25.047 25.223C83.026 94.3 94.223 83.18 94.3 69.328c.078-13.924-11.12-25.2-25.047-25.223z"/><path fill="#ff7f00" d="M111.938 32.062c.043 3.152-2.542 5.765-5.693 5.754-3.074-.011-5.612-2.522-5.654-5.597-.043-3.152 2.542-5.765 5.693-5.754 3.074.011 5.612 2.523 5.654 5.597z"/></svg>