<svg xmlns="http://www.w3.org/2000/svg" viewBox="0 0 151.16 137.12"><path fill="#fff" d="M75.709 137.124c-9.551-8.895-18.944-17.387-28.04-26.185-9.982-9.654-19.96-19.339-29.439-29.479C9.686 72.32 3.583 61.715.954 49.168c-5.7-27.2 15.305-47.057 32.219-49.497 16.063-2.318 28.682 3.904 38.691 16.198.64.786 1.213 1.625 1.806 2.448.53.736 1.046 1.482 1.823 2.587 1.169-1.566 2.202-2.978 3.264-4.369C85.191 8.107 93.336 2.156 103.832 0c16.375-3.364 31.831 3.83 41.157 18.851 8.933 14.389 7.249 29.045.787 43.621-5.059 11.412-13.381 20.55-22.196 29.112-15.711 15.258-31.721 30.208-47.871 45.54z"/></svg>