<svg xmlns="http://www.w3.org/2000/svg" width="5.6in" height="2in" data-name="Layer 1" viewBox="0 0 400 140.8"><path fill="#fff" d="M100.4 104.7c-4.7-16.3-3.9-23.3-3.8-24.4v-.2a21.4 21.4 0 0 0 .4-4.3 22.4 22.4 0 0 0-2-9.2c-.3-9-13.3-23.2-13.3-23.2 0-2-5.8-3.5-13-3.6h-.6c-7.2.1-13 1.7-13 3.6 0 0-13 14.2-13.3 23.2a22.4 22.4 0 0 0-2 9.2 21.4 21.4 0 0 0 .4 4.3v.2c.2 1.1.9 8.1-3.8 24.4l-1.4 5.1v1.1l.3 1.1v.8a12.2 12.2 0 0 0 2.8 4.1c.2.3 7 10.4 6.5 17.9 0 .3-.1.6-.1.9 0 2.5 2.3 4.5 5.1 4.5a17 17 0 0 0 13.9-2.5l.3-.2a6.7 6.7 0 0 0 1.4-1.4 5.8 5.8 0 0 0 1.2-3.4 6.2 6.2 0 0 0-3.5-5.4c-.5-.3-11.9-8.2-1.6-11a32.3 32.3 0 0 1 7-.9h.4a32.3 32.3 0 0 1 7 .9c10.4 2.8-1.1 10.6-1.6 11a6.2 6.2 0 0 0-3.5 5.4 5.8 5.8 0 0 0 1.2 3.4 6.7 6.7 0 0 0 1.4 1.4l.3.2a17 17 0 0 0 13.4 2.7c2.8 0 5.1-2 5.1-4.5 0-.3-.1-.6-.1-.9-.5-7.5 6.3-17.6 6.5-17.9a12.1 12.1 0 0 0 2.8-4.1v-.8l.3-1.1V110zM55 86.9a7.5 7.5 0 1 1 7.5-7.5 7.5 7.5 0 0 1-7.5 7.5zm26.7 0a7.5 7.5 0 1 1 7.5-7.5 7.5 7.5 0 0 1-7.5 7.5z"/><path fill="#fff" d="M102.8 74.5l11-20.2a40.6 40.6 0 0 0 .6-30.7 15.6 15.6 0 0 0-12.1-8.8A85.6 85.6 0 0 1 68.5 1.1c-11-7.8-.2 26.6 17.5 38.7 0 0 7.7 7.6 10.9 15.1s4.8 19.2 4.8 19.2.1 2.1 1.1.4zm-54-33.3l-23.6 8.2S9.3 55.5 1.1 71.6a13.1 13.1 0 0 0 2 13.8 67 67 0 0 1 14 30.4c2 12.3 20.7-19.4 17.1-39 0 0 .2-10.3 3.8-17.7s11.3-17 11.3-17 1.4-1.6-.5-.9zM135.9 21h16.9v41.3h26.5v13.5h-43.4zm47.7 27.4q0-13.4 7.5-20.9t20.8-7.5q13.7 0 21.1 7.4t7.4 20.6q0 9.6-3.2 15.8a23.1 23.1 0 0 1-9.4 9.6q-6.1 3.4-15.2 3.4t-15.4-3a23.1 23.1 0 0 1-9.9-9.4q-3.7-6.4-3.7-16zm16.9.1q0 8.3 3.1 11.9A10.5 10.5 0 0 0 212 64q5.5 0 8.5-3.6t3-12.8q0-7.7-3.1-11.3a10.7 10.7 0 0 0-8.5-3.6 10.3 10.3 0 0 0-8.2 3.6q-3.1 3.8-3.1 12.2zM238.8 21h18.8l11.1 18.5L279.8 21h18.7l-21.3 31.8v23h-17v-23zm91.7 45.8h-19.3l-2.7 9.1h-17.2L311.9 21h18.5L351 75.8h-17.8zM327 54.9l-6.1-19.7-6 19.7zM356.4 21h17v41.3h26.5v13.5h-43.5zM135.5 130.5V82.3h24.8a36.1 36.1 0 0 1 10.6 1.2 11.2 11.2 0 0 1 5.9 4.4 13.6 13.6 0 0 1-4.2 19.5 18 18 0 0 1-5.2 1.9 10.1 10.1 0 0 1 6.3 4.3 19 19 0 0 1 2.1 3l7.2 14h-16.9l-8-14.7a11.2 11.2 0 0 0-2.7-3.7 6.3 6.3 0 0 0-3.7-1.1h-1.3v19.6zm15-28.7h6.3a22.5 22.5 0 0 0 3.9-.7 3.9 3.9 0 0 0 2.4-1.5 4.9 4.9 0 0 0-.5-6.4q-1.5-1.3-5.6-1.3h-6.5zm73.4 14.5h-26.8a8.7 8.7 0 0 0 1.7 4.8 6.3 6.3 0 0 0 5.1 2.3 7.6 7.6 0 0 0 3.8-1 8.8 8.8 0 0 0 2.3-2.2l13.2 1.2a18.9 18.9 0 0 1-7.3 7.6q-4.3 2.3-12.3 2.3t-10.9-2a16 16 0 0 1-6.6-6.2 18.8 18.8 0 0 1-2.6-10q0-8.2 5.2-13.3t14.5-5.1q7.5 0 11.8 2.3a15.3 15.3 0 0 1 6.6 6.6q2.3 4.3 2.3 11.2zm-13.6-6.4q-.4-3.9-2.1-5.6a6.6 6.6 0 0 0-9.6.9 9.3 9.3 0 0 0-1.5 4.7zm17.4 10.9l13.3-1.2a6.6 6.6 0 0 0 2.3 3.4 6.8 6.8 0 0 0 3.9 1 6.7 6.7 0 0 0 4.2-1.2 2.6 2.6 0 0 0 1.2-2.1 2.4 2.4 0 0 0-1.5-2.2 27.6 27.6 0 0 0-5.8-1.4 59.9 59.9 0 0 1-9.7-2.3 10.2 10.2 0 0 1-4.6-3.5 9.1 9.1 0 0 1-1.9-5.6 9.2 9.2 0 0 1 2-6 11.9 11.9 0 0 1 5.5-3.7 29.4 29.4 0 0 1 9.4-1.2 32.7 32.7 0 0 1 9.2 1 12 12 0 0 1 5 3 15.5 15.5 0 0 1 3.3 5.4l-12.5 1.2a4.3 4.3 0 0 0-1.6-2.5 6.7 6.7 0 0 0-3.8-1.1 5.4 5.4 0 0 0-3.3.8 2.4 2.4 0 0 0-1 2 2.1 2.1 0 0 0 1.3 1.9 21.3 21.3 0 0 0 5.7 1.2 39.2 39.2 0 0 1 9.9 2.1 11 11 0 0 1 5 3.8 9.4 9.4 0 0 1 1.7 5.5 10.8 10.8 0 0 1-1.8 5.9 12.4 12.4 0 0 1-5.8 4.6q-3.9 1.7-10.7 1.7-9.6 0-13.6-2.7a12.3 12.3 0 0 1-5.3-7.8zm69.6-4l12.7 1.4a17.8 17.8 0 0 1-3.5 6.9 16.1 16.1 0 0 1-6.1 4.5 24.1 24.1 0 0 1-9.5 1.6 35 35 0 0 1-9.3-1 16.2 16.2 0 0 1-6.4-3.4 16.9 16.9 0 0 1-4.2-5.4 19.1 19.1 0 0 1-1.5-8.3 19.5 19.5 0 0 1 1.8-9 16.3 16.3 0 0 1 3.7-4.7 17 17 0 0 1 4.8-3.1 26.7 26.7 0 0 1 10-1.6q8.6 0 13 3.1a16.1 16.1 0 0 1 6.3 9l-12.6 1.7a5.8 5.8 0 0 0-2.2-3.4 7 7 0 0 0-4.2-1.1 6.8 6.8 0 0 0-5.4 2.4q-2.1 2.4-2.1 7.2t2 6.5a6.7 6.7 0 0 0 5.2 2.2 7.2 7.2 0 0 0 4.4-1.3 8 8 0 0 0 3.1-4.2zm55.7 13.7h-12.5v-5.7a18.4 18.4 0 0 1-5.6 5 15 15 0 0 1-7 1.5q-5.5 0-8.7-3.3t-3.1-10.2V95.6h13.5v19.2q0 3.3 1.2 4.7a4.3 4.3 0 0 0 3.4 1.4 4.9 4.9 0 0 0 3.9-1.8q1.5-1.8 1.5-6.6V95.6H353zm47-14.2h-26.9a8.7 8.7 0 0 0 1.7 4.8 6.4 6.4 0 0 0 5.1 2.3 7.6 7.6 0 0 0 3.8-1 8.8 8.8 0 0 0 2.3-2.2l13.2 1.2a18.9 18.9 0 0 1-7.3 7.6q-4.3 2.3-12.3 2.3t-10.9-2a16 16 0 0 1-6.6-6.2 18.8 18.8 0 0 1-2.6-10q0-8.2 5.2-13.3t14.5-5.1q7.5 0 11.8 2.3a15.3 15.3 0 0 1 6.6 6.6q2.3 4.3 2.3 11.2zm-13.6-6.4q-.4-3.9-2.1-5.6a6.6 6.6 0 0 0-9.6.9 9.3 9.3 0 0 0-1.5 4.7z"/></svg>