<svg xmlns="http://www.w3.org/2000/svg" width="2in" height="1.9in" data-name="Layer 1" viewBox="0 0 146.8 138.3"><path fill="#fff" d="M113.6 56.1a12.7 12.7 0 0 0 2.2-.2l3.9-1.3a9.5 9.5 0 0 1 10.3 1.7 6 6 0 0 1 .6 8.9 12.7 12.7 0 0 1-3.4 2.6 31.8 31.8 0 0 1-5.8 2.4l-4.1 1.6a8 8 0 0 0-1.8 1.3 2.5 2.5 0 0 0-.9 2.6 8.1 8.1 0 0 0 .5 1.7 44.8 44.8 0 0 0 15.6 19.2 30.9 30.9 0 0 0 12.3 5 4.4 4.4 0 0 1 3.8 4.2 5.2 5.2 0 0 1-.9 3.2 9.1 9.1 0 0 1-2.9 2.8 22.8 22.8 0 0 1-6.7 2.8l-8.2 1.8c-1 .2-1 .2-1.3 1.2s-.7 2.9-1 4.4a4.8 4.8 0 0 1-5.4 3.9 39.5 39.5 0 0 1-4.4-.6 33.5 33.5 0 0 0-11.7-.1 13 13 0 0 0-4.6 1.8l-4.6 3a52.6 52.6 0 0 1-10.8 6 29.3 29.3 0 0 1-12.2 2.2A31.7 31.7 0 0 1 60 135a57.8 57.8 0 0 1-8.3-4.9l-3.9-2.6a17.1 17.1 0 0 0-8.9-2.7 39.1 39.1 0 0 0-9.8.9 16.7 16.7 0 0 1-3.3.4 4.6 4.6 0 0 1-4.7-3.5c-.4-1.4-.7-2.8-1-4.2l-.4-1.7-3.3-.6A47.7 47.7 0 0 1 6.2 113a13.3 13.3 0 0 1-4.4-3 5.9 5.9 0 0 1-1.8-3.7 4.4 4.4 0 0 1 3.5-4.6c9.1-1.6 16-6.5 21.7-13.5a45.1 45.1 0 0 0 6.3-10.3 11.6 11.6 0 0 0 .6-1.7 2.8 2.8 0 0 0-1-3.1 12.2 12.2 0 0 0-2.5-1.5L24.1 70a23.5 23.5 0 0 1-5.7-2.7 10.3 10.3 0 0 1-2.6-2.5 6 6 0 0 1 .3-7.6c2-2.4 6.6-4.2 10.3-2.3a12.7 12.7 0 0 0 5.2 1.4h1.5v-1.4c-.2-4-.5-8-.6-12a72.1 72.1 0 0 1 .5-11.7 31.4 31.4 0 0 1 4.5-12c5.8-9.7 14-15.4 24.7-17.9A52.4 52.4 0 0 1 75.1 0c9.7.2 18.5 3 25.9 9.3A38 38 0 0 1 112.6 26a30.9 30.9 0 0 1 1.5 7.9A108.6 108.6 0 0 1 114 50c-.2 2-.3 3.9-.4 6.1z"/></svg>