<svg xmlns="http://www.w3.org/2000/svg" viewBox="0 0 146.83 138.24"><path fill="#fff800" d="M113.578 56.11c.834-.064 1.565-.012 2.232-.194a33.126 33.126 0 0 0 3.877-1.293c3.797-1.562 7.249-.857 10.3 1.689 2.865 2.391 3.016 6.123.558 8.936-.955 1.094-2.124 1.915-3.376 2.627-1.821 1.036-3.784 1.718-5.763 2.378a43.515 43.515 0 0 0-4.083 1.594c-.67.302-1.282.774-1.846 1.255-.771.658-1.075 1.543-.872 2.551.115.571.229 1.159.464 1.686 3.479 7.81 8.518 14.369 15.612 19.238 3.726 2.557 7.84 4.203 12.299 4.98 2.208.385 3.67 1.964 3.839 4.187.086 1.13-.257 2.185-.853 3.153-.735 1.192-1.767 2.076-2.929 2.823-2.075 1.334-4.357 2.216-6.723 2.824-2.705.696-5.449 1.243-8.184 1.818-1.038.218-1.049.171-1.302 1.24-.345 1.456-.651 2.922-1.039 4.366-.738 2.746-2.542 4.106-5.372 3.934-1.487-.091-2.966-.384-4.438-.644-3.885-.686-7.772-.74-11.657-.061-1.651.288-3.179.961-4.596 1.84a101.465 101.465 0 0 0-4.565 3.007c-3.399 2.373-6.924 4.512-10.796 6.036-3.925 1.544-7.983 2.356-12.211 2.156-4.288-.203-8.32-1.398-12.18-3.233-2.92-1.388-5.647-3.095-8.292-4.947-1.28-.896-2.587-1.752-3.888-2.618-2.681-1.785-5.676-2.515-8.856-2.677-3.309-.169-6.56.196-9.796.852-1.078.218-2.191.366-3.288.366-2.359.001-4.023-1.26-4.701-3.527-.409-1.369-.686-2.778-1.024-4.169-.13-.537-.262-1.073-.413-1.69-1.109-.207-2.224-.406-3.335-.626-3.482-.689-6.93-1.502-10.192-2.949-1.646-.73-3.194-1.624-4.443-2.955-1.01-1.076-1.678-2.321-1.743-3.825-.098-2.247 1.335-4.245 3.539-4.622 9.09-1.554 16.027-6.525 21.694-13.533 2.55-3.153 4.688-6.569 6.316-10.291.247-.564.452-1.153.605-1.748.321-1.251.017-2.362-1.029-3.136-.778-.576-1.618-1.111-2.507-1.482-1.467-.613-2.991-1.092-4.5-1.603-2.012-.681-3.942-1.528-5.707-2.723-1.004-.68-1.907-1.474-2.623-2.461-1.751-2.416-1.606-5.395.341-7.644 2.043-2.359 6.619-4.189 10.333-2.324 1.635.821 3.382 1.361 5.236 1.43.477.018.957-.045 1.481-.073 0-.54.019-.99-.003-1.437-.192-3.999-.456-7.997-.57-11.998-.112-3.906.006-7.806.529-11.695.584-4.348 2.237-8.265 4.464-11.986C43.251 9.477 51.544 3.74 62.205 1.311A52.387 52.387 0 0 1 75.093 0c9.662.226 18.451 3.045 25.942 9.32 5.358 4.488 9.181 10.088 11.529 16.67.913 2.559 1.273 5.246 1.492 7.943.437 5.369.243 10.737-.118 16.102-.131 1.945-.231 3.893-.36 6.075z"/></svg>