<svg xmlns="http://www.w3.org/2000/svg" width="2.3in" height="1.9in" data-name="Layer 1" viewBox="0 0 167.8 137.4"><path fill="#fff" d="M.1 121.6c18.2 1.4 34.8-2.9 49.9-14.2-7.5-.8-14.1-2.8-19.8-7.2a33.5 33.5 0 0 1-12.1-17c5 .2 9.7.5 14.3-.6C15.8 77.1 6.8 65.9 5.9 48.3a38.8 38.8 0 0 0 14.6 3.8C13.6 46.6 8.8 39.8 7 31.1a35.4 35.4 0 0 1 3.6-24.8l8.3 8.2c17.3 17 38.2 25.8 62.2 27.7h.9c-.1-.6-.1-1.2-.1-1.8-.8-8-.3-15.9 4.1-23C93.6 4.9 104.7-1.2 119.6 0a32 32 0 0 1 19.5 8.6c1.8 1.6 3.5 2.1 5.7 1.3l14.6-5.6 4-1.8c-2.7 7.7-7.5 13.4-13.9 18.4 3.5.1 6.4-.9 9.3-1.7s5.7-1.8 9-2.9l-1.2 1.9A70.5 70.5 0 0 1 153 32.3a4.6 4.6 0 0 0-2 4 108.6 108.6 0 0 1-2.3 22.4c-6 26.2-19.6 47.4-42 62.6A87.4 87.4 0 0 1 66.9 136c-13.5 1.5-27.1 1.4-40.4-2.2a107.9 107.9 0 0 1-24.9-10.6l-1.6-1z"/></svg>