<svg xmlns="http://www.w3.org/2000/svg" viewBox="0 0 167.84 137.1"><path fill="#0086ff" d="M.06 121.736c18.24 1.421 34.815-2.919 49.905-14.225-7.456-.813-14.108-2.827-19.819-7.192-5.708-4.362-9.862-9.855-12.084-16.95 4.965.179 9.655.503 14.272-.641-16.542-5.483-25.526-16.68-26.443-34.272 4.675 2.163 9.463 3.522 14.65 3.766-6.913-5.506-11.77-12.317-13.56-21.006-1.767-8.573-.71-16.801 3.591-24.764 2.856 2.797 5.593 5.474 8.327 8.153 17.293 16.951 38.18 25.84 62.191 27.719.214.017.431.002.882.002-.052-.645-.088-1.213-.145-1.778-.8-8.033-.31-15.865 4.059-22.954C93.617 5.051 104.737-1.026 119.603.142c7.522.591 14.006 3.567 19.523 8.599 1.769 1.613 3.51 2.112 5.678 1.294 4.872-1.839 9.742-3.683 14.601-5.555 1.223-.471 2.401-1.057 4.029-1.781-2.726 7.742-7.511 13.395-13.94 18.387 3.524.078 6.403-.935 9.296-1.726 2.883-.789 5.707-1.794 9.05-2.862-.577.905-.858 1.407-1.196 1.867-3.893 5.303-8.388 10.048-13.578 14.078-1.424 1.106-1.97 2.253-2.002 3.974-.142 7.537-.634 15.051-2.331 22.422-6.035 26.212-19.566 47.444-42.011 62.618-12.037 8.137-25.364 13.145-39.794 14.734-13.547 1.492-27.09 1.397-40.399-2.247-8.796-2.408-17.043-6.088-24.944-10.59-.548-.312-1.056-.693-1.582-1.043.017-.191.037-.383.057-.575z"/></svg>